<svg width="1439" height="679" viewBox="0 0 1439 679" fill="none" xmlns="http://www.w3.org/2000/svg">
<g opacity="0.25">
<path opacity="0.25" d="M15.3197 677.974C-16.4113 586.489 6.38653 488.665 65.9815 415.655C135.936 329.966 246.299 286.207 351.816 272.042C439.36 260.306 529.203 267.69 617.542 265.804C770.059 262.576 920.193 227.13 1072.12 214.872C1126.91 210.455 1182.1 209.527 1236.93 204.123C1283.48 199.539 1333.8 192.155 1373.02 164.056" stroke="#149DFD" stroke-width="0.888889"/>
<path opacity="0.25" d="M23.6561 674.42C-5.90365 585.002 16.9793 490.073 75.0913 419.202C142.882 336.515 249.257 293.888 351.212 279.549C435.549 267.69 522.476 274.638 607.458 270.845C683.288 267.487 757.883 249.448 832.485 235.217C867.494 228.544 902.822 222.481 938.115 218.042C973.876 213.552 1010.03 210.375 1046.08 208.381C1051.32 208.091 1056.6 207.829 1061.85 207.612C1122.06 205.138 1182.85 206.886 1242.84 203.927C1259.92 203.079 1277.32 201.831 1294.03 199.155C1322.97 194.513 1350.45 185.047 1375.4 168.227" stroke="#149DFD" stroke-width="0.888889"/>
<path opacity="0.25" d="M32.0283 670.967C4.60429 583.718 27.5511 491.559 84.1234 422.835C149.764 343.094 252.208 301.577 350.616 287.041C431.774 275.059 515.841 281.587 597.482 276.024C671.821 270.946 742.62 244.11 815.1 227.05C850.712 218.651 886.878 211.746 923.094 207.655C960.146 203.47 997.752 201.468 1035.2 200.714C1040.64 200.605 1046.11 200.532 1051.56 200.503C1114.15 200.184 1177.15 204.355 1239.59 204.747C1257.45 204.855 1275.7 204.747 1293.19 202.745C1323.36 199.357 1351.84 189.827 1377.83 172.455" stroke="#149DFD" stroke-width="0.888889"/>
<path opacity="0.25" d="M40.4442 667.66C15.4184 582.217 37.7904 493.533 93.0855 426.586C156.562 349.702 255.111 309.287 350.02 294.578C428.07 282.479 508.739 288.093 587.598 281.312C661.008 274.951 727.514 238.997 797.618 219.145C833.748 208.925 870.765 201.28 907.931 197.465C946.325 193.534 985.4 192.67 1024.21 193.113C1029.85 193.185 1035.52 193.294 1041.16 193.447C1106.19 195.253 1171.37 201.78 1236.22 205.516C1254.81 206.589 1273.82 207.692 1292.23 206.277C1323.12 203.964 1354.15 195.296 1380.13 176.67" stroke="#149DFD" stroke-width="0.888889"/>
<path opacity="0.25" d="M48.8868 664.403C25.8336 581.042 48.1773 495.309 101.968 430.364C163.28 356.382 257.984 316.932 349.43 302.026C424.373 289.812 502.132 294.889 577.805 286.599C650.293 278.664 712.002 234.064 780.027 211.528C816.597 199.423 854.529 191.045 892.632 187.498C932.431 183.799 972.974 184.024 1013.18 185.692C1019.02 185.932 1024.9 186.215 1030.75 186.556C1098.27 190.4 1165.72 199.328 1232.9 206.357C1252.32 208.38 1272.14 210.426 1291.31 209.867C1323.74 209.055 1355.31 199.021 1382.47 180.891" stroke="#149DFD" stroke-width="0.888889"/>
<path opacity="0.25" d="M57.3603 661.291C36.2512 580.164 58.5452 497.13 110.768 434.266C169.916 363.026 260.823 324.584 348.807 309.519C420.699 297.188 495.577 301.729 568.058 292.024C639.885 282.414 696.309 229.364 762.389 204.181C799.315 190.068 837.951 181.166 877.229 177.721C918.468 174.182 960.495 175.487 1002.11 178.323C1008.16 178.737 1014.24 179.186 1020.29 179.701C1090.33 185.62 1160.07 196.862 1229.61 207.133C1249.8 210.114 1270.38 213.218 1290.4 213.385C1323.32 213.653 1356.76 204.805 1384.77 185.098" stroke="#149DFD" stroke-width="0.888889"/>
<path opacity="0.25" d="M65.8672 658.281C46.6314 579.388 68.819 498.849 119.488 438.241C176.642 369.865 263.327 332.345 348.26 317.019C417.136 304.565 489.17 308.576 558.514 297.537C629.752 286.193 680.237 225.483 744.643 197.189C781.837 180.855 821.806 171.396 861.718 168.241C904.383 164.861 947.935 167.19 990.948 171.143C997.206 171.716 1003.49 172.339 1009.76 173.028C1082.37 180.949 1154.51 194.505 1226.31 207.989C1247.18 211.913 1268.5 216.294 1289.46 216.968C1323.78 218.078 1358 209.643 1387.08 189.341" stroke="#149DFD" stroke-width="0.888889"/>
<path opacity="0.25" d="M74.3956 655.387C56.9691 578.714 79.0361 500.945 128.137 442.31C183.134 376.604 266.13 340.04 347.692 324.511C413.588 311.956 482.826 315.401 549.027 303.129C619.854 289.994 664.158 221.407 726.818 190.465C764.169 172.013 805.23 161.989 846.022 158.95C890.263 155.65 935.305 158.95 979.801 164.027C986.272 164.753 992.771 165.551 999.242 166.399C1074.45 176.285 1148.96 192.148 1223.06 208.801C1244.76 213.675 1266.88 218.956 1288.59 220.501C1323.89 223.039 1359.05 214.249 1389.43 193.577" stroke="#149DFD" stroke-width="0.888889"/>
<path opacity="0.25" d="M82.9596 652.609C67.2786 578.177 89.1895 503.157 136.651 446.437C189.491 383.335 268.84 347.7 347.075 331.982C410.033 319.333 476.163 321.965 539.582 308.772C610.282 294.084 648.413 217.432 708.888 184.017C746.174 163.389 788.52 152.828 830.22 149.869C876.001 146.67 922.561 150.957 968.533 157.035C975.231 157.927 981.95 158.87 988.62 159.886C1066.49 171.737 1143.4 189.841 1219.76 209.621C1242.22 215.423 1265.09 221.755 1287.64 224.026C1324.26 227.873 1361.04 218.611 1391.72 197.82" stroke="#149DFD" stroke-width="0.888889"/>
<path opacity="0.25" d="M91.5452 649.933C77.5529 577.793 99.2723 505.464 145.152 450.688C195.849 390.16 271.6 355.395 346.529 339.496C406.578 326.753 469.99 328.791 530.302 314.582C600.817 297.972 632.207 213.893 690.936 177.888C728.159 155.077 771.761 143.936 814.27 141.078C861.618 137.872 909.782 143.095 957.201 150.246C964.12 151.291 971.052 152.386 977.949 153.561C1058.49 167.291 1137.85 187.651 1216.45 210.528C1239.58 217.266 1263.11 224.809 1286.69 227.638C1324.55 232.149 1361.45 223.844 1393.97 202.063" stroke="#149DFD" stroke-width="0.888889"/>
<path opacity="0.25" d="M100.166 647.351C87.7913 577.517 109.255 507.865 153.545 454.982C202.142 396.971 274.303 363.069 345.968 346.989C403.15 334.158 463.859 335.572 521.113 320.428C591.528 301.809 615.894 210.6 672.906 172.042C709.909 147.019 754.859 135.276 798.269 132.447C847.228 129.219 896.982 135.348 945.855 143.479C953 144.669 960.153 145.923 967.262 147.251C1050.55 162.838 1132.38 185.424 1213.2 211.354C1237.14 219.036 1261.45 227.456 1285.76 231.148C1324.35 237.009 1362.62 228.653 1396.27 206.313" stroke="#149DFD" stroke-width="0.888889"/>
<path opacity="0.25" d="M108.802 644.921C97.9951 577.386 119.133 509.685 161.847 459.391C208.678 404.267 275.921 371.439 345.393 354.481C400.029 341.15 458.41 342.767 512.002 326.361C582.014 304.927 598.979 208.047 654.792 166.464C691.44 139.17 737.88 126.912 782.12 124.04C832.669 120.754 884.061 127.71 934.46 136.835C941.825 138.177 949.205 139.627 956.541 141.078C1042.52 158.42 1126.93 183.27 1209.93 212.21C1234.6 220.819 1259.66 230.256 1284.81 234.695C1324.44 241.665 1363.74 233.462 1398.53 210.571" stroke="#149DFD" stroke-width="0.888889"/>
<path opacity="0.25" d="M117.493 642.578C108.184 577.35 129.016 512.347 170.099 463.859C214.8 411.107 278.617 379.135 344.853 361.981C396.7 348.555 452.471 349.505 503.026 332.373C536.531 321.015 557.079 284.64 573.981 254.728C592.032 222.727 607.897 184.894 636.669 161.234C672.778 131.547 721.106 118.825 765.914 115.924C818.144 112.544 871.126 120.276 923.05 130.365C930.65 131.815 938.256 133.382 945.813 135.007C1034.51 154.09 1121.5 181.159 1206.65 213.08C1231.99 222.567 1257.67 233.193 1283.86 238.212C1324.78 246.024 1364.99 238.212 1400.77 214.835" stroke="#149DFD" stroke-width="0.888889"/>
<path opacity="0.25" d="M126.157 640.344C118.281 577.437 138.759 515.118 178.21 468.407C220.783 417.976 281.513 386.323 344.244 369.474C393.061 356.367 446.292 356.048 494.073 338.466C527.535 326.136 546.054 286.091 560.77 255.388C576.827 221.893 590.287 181.522 618.357 156.266C653.913 124.28 703.914 110.992 749.489 108.011C803.365 104.486 858.128 112.943 911.479 123.968C919.284 125.585 927.152 127.268 934.936 129.045C1026.35 149.608 1116.03 179.092 1203.4 213.951C1229.53 224.381 1256 235.885 1282.87 241.745C1324.49 250.812 1366.06 243 1402.98 219.108" stroke="#149DFD" stroke-width="0.888889"/>
<path opacity="0.25" d="M134.864 638.226C128.365 577.662 148.473 517.975 186.264 473.027C226.708 424.881 284.139 393.968 343.713 376.966C389.833 363.78 440.474 362.743 485.289 344.632C518.638 331.162 534.957 287.774 547.729 256.143C561.8 221.327 572.805 178.403 600.115 151.559C634.989 117.295 686.68 103.383 733.021 100.293C788.592 96.5871 845.037 105.777 899.921 117.701C907.974 119.449 916.07 121.27 924.045 123.156C1018.3 145.387 1110.58 177.039 1200.14 214.836C1226.84 226.1 1253.9 238.945 1281.93 245.299C1325.15 255.026 1367.18 247.664 1405.22 223.38" stroke="#149DFD" stroke-width="0.888889"/>
<path opacity="0.25" d="M143.591 636.217C138.411 578.017 158.108 520.942 194.231 477.72C232.603 431.8 286.742 401.685 343.13 384.466C386.561 371.207 434.661 369.394 476.567 350.877C509.874 336.189 523.781 289.536 534.708 257.129C546.877 220.972 555.214 175.734 581.786 147.236C615.845 110.665 669.366 96.1228 716.437 92.8952C773.726 88.9712 831.874 98.85 888.311 111.608C896.599 113.48 904.936 115.431 913.145 117.411C1010.23 141.216 1105.18 175.038 1196.89 215.721C1224.3 227.877 1252.06 241.76 1280.96 248.795C1325.19 259.566 1368.24 252.465 1407.42 227.659" stroke="#149DFD" stroke-width="0.888889"/>
<path opacity="0.25" d="M152.339 634.295C148.416 578.445 167.659 523.988 202.107 482.471C238.408 438.72 288.956 410.048 342.598 391.937C383.617 378.083 428.73 376.625 467.982 357.18C501.331 340.679 512.584 291.263 521.695 258.174C531.969 220.827 537.603 173.275 563.367 143.109C596.581 104.232 651.954 89.0438 699.72 85.6493C758.698 81.4497 818.591 91.9886 876.618 105.552C885.133 107.547 893.718 109.621 902.204 111.768C1002.14 137.096 1099.74 173.065 1193.64 216.62C1221.93 229.741 1250.48 244.262 1279.98 252.313C1324.68 264.52 1369.29 257.282 1409.62 231.946" stroke="#149DFD" stroke-width="0.888889"/>
<path opacity="0.25" d="M161.109 632.532C159.42 578.612 176.655 527.767 209.897 487.338C244.133 445.698 291.602 417.599 342.051 399.459C380.324 385.677 423.01 383.298 459.495 363.599C492.638 345.705 501.401 292.902 508.752 259.407C517.167 221.045 520.069 170.823 544.939 139.337C577.28 98.3641 634.044 82.3273 682.939 78.7007C743.655 74.1892 805.294 85.3374 864.91 99.6842C873.68 101.795 882.499 103.993 891.22 106.263C994.04 133.042 1094.3 171.128 1190.39 217.527C1219.23 231.446 1248.36 247.345 1279 255.831C1325.36 268.676 1370.33 262.083 1411.79 236.247" stroke="#149DFD" stroke-width="0.888889"/>
<path opacity="0.25" d="M169.894 630.857C169.326 579.323 186.064 531.024 217.604 492.248C249.803 452.668 294.143 425.294 341.505 406.951C377.188 393.134 417.64 389.964 451.102 370.068C483.968 350.521 490.085 295.063 495.846 260.748C502.416 221.625 502.395 168.858 526.477 135.841C558.066 92.5324 616.498 75.8065 666.053 71.9478C728.493 67.0809 791.912 78.8093 853.153 93.896C862.165 96.1227 871.233 98.4365 880.194 100.83C985.917 129.038 1088.87 169.206 1187.15 218.433C1216.7 233.237 1246.5 250.115 1277.97 259.341C1325.38 273.224 1371.34 266.827 1413.96 240.534" stroke="#149DFD" stroke-width="0.888889"/>
<path opacity="0.25" d="M178.692 629.29C179.188 580.258 195.43 534.331 225.224 497.231C255.366 459.696 296.697 432.975 340.965 414.443C374.116 400.575 412.098 396.513 442.814 376.603C475.354 355.518 478.788 297.021 482.982 262.206C486.018 236.965 487.948 211.564 491.766 186.432C494.519 168.299 497.648 148.055 507.965 132.613C538.475 87.0053 598.787 69.5106 649.066 65.4198C713.258 60.154 778.473 72.4191 841.353 88.2238C850.613 90.5449 859.929 92.9747 869.139 95.477C977.806 125.121 1083.45 167.32 1183.94 219.354C1214.38 235.115 1244.97 252.625 1277.04 262.873C1324.74 278.105 1372.37 271.65 1416.11 244.857" stroke="#149DFD" stroke-width="0.888889"/>
<path opacity="0.25" d="M187.503 627.839C189.007 581.151 204.646 537.827 232.751 502.287C260.856 466.746 299.136 440.678 340.425 421.943C371.077 408.017 406.605 403.027 434.632 383.218C466.824 360.465 467.441 299.284 470.152 263.838C472.117 238.133 472.99 212.34 475.523 186.671C477.41 167.748 479.383 146.213 489.423 129.719C518.593 81.8483 581.061 63.5993 631.986 59.1749C697.924 53.4449 764.976 66.225 829.488 82.7042C838.996 85.1341 848.568 87.6727 858.019 90.2911C969.66 121.197 1078.03 165.463 1180.69 220.276C1211.7 236.82 1242.84 255.606 1276 266.362C1324.91 282.24 1373.68 276.713 1418.26 249.15" stroke="#149DFD" stroke-width="0.888889"/>
<path opacity="0.25" d="M196.339 626.491C198.78 582.152 213.773 541.454 240.196 507.364C266.45 473.586 301.622 448.374 339.895 429.4C368.092 415.423 401.129 409.483 426.552 389.863C458.283 365.376 456.098 301.512 457.354 265.543C458.283 238.917 458.006 212.239 459.482 185.635C460.554 166.276 461.426 144.291 470.835 127.058C498.295 77.0109 563.254 57.8262 614.802 53.0754C682.508 46.8811 751.241 60.1835 817.57 77.2212C827.355 79.7381 837.147 82.371 846.86 85.1127C961.658 117.607 1072.62 163.629 1177.46 221.212C1209.3 238.699 1241.24 258.159 1274.99 269.866C1324.37 286.991 1374.69 281.471 1420.39 253.459" stroke="#149DFD" stroke-width="0.888889"/>
<path opacity="0.25" d="M205.179 625.257C208.5 583.414 222.918 545.008 247.546 512.586C271.798 480.672 304.154 456.077 339.354 436.935C365.04 422.966 395.728 416.155 418.576 396.644C433.086 384.256 437.485 361.981 440.323 343.921C444.29 318.701 444.694 292.923 444.581 267.443C444.453 240.867 443.232 214.299 443.396 187.73C443.523 167.226 443.012 143.406 452.265 124.758C478.192 72.5352 545.407 52.4076 597.573 47.3522C667.045 40.6212 737.652 54.3443 805.663 72.013C815.696 74.6242 825.75 77.3514 835.712 80.2019C953.497 113.857 1067.2 161.844 1174.24 222.176C1206.65 240.447 1239.15 261.147 1273.98 273.369C1324.82 291.219 1375.64 286.251 1422.5 257.775" stroke="#149DFD" stroke-width="0.888889"/>
<path opacity="0.25" d="M214.034 624.14C218.093 584.821 231.929 548.664 254.805 517.838C277.142 487.73 306.68 463.736 338.83 444.428C362.138 430.437 390.315 422.574 410.707 403.462C424.288 390.733 427.807 368.988 430.071 351.239C433.519 324.177 432.909 296.623 431.809 269.423C430.638 241.049 428.169 212.74 427.339 184.358C426.75 164.404 425.366 141.245 433.64 122.706C457.942 68.2633 527.47 47.2072 580.225 41.7891C651.457 34.4561 724.065 48.5201 793.693 66.8199C803.967 69.5181 814.27 72.3541 824.516 75.2844C945.196 109.889 1061.79 160.031 1171.02 223.097C1204.14 242.217 1237.28 263.896 1272.96 276.865C1324.8 295.723 1376.55 291.031 1424.61 262.098" stroke="#149DFD" stroke-width="0.888889"/>
<path opacity="0.25" d="M222.897 623.125C227.693 586.359 240.905 552.414 261.979 523.154C282.421 494.758 309.156 471.533 338.305 451.928C359.527 437.654 384.752 428.718 402.945 410.338C416.603 396.557 419.002 372.172 420.47 353.502C422.599 326.259 421.123 298.741 419.051 271.541C416.923 243.254 413.496 215.09 411.445 186.802C409.927 165.862 407.067 140.853 414.993 120.972C437.556 64.3972 509.412 42.2968 562.792 36.4942C635.804 28.552 710.321 42.9206 781.638 61.7644C792.174 64.5496 802.775 67.4726 813.241 70.4682C937.022 106.212 1056.39 158.275 1167.81 224.055C1201.76 244.073 1235.68 266.464 1271.93 280.339C1324.19 300.373 1377.51 295.818 1426.69 266.413" stroke="#149DFD" stroke-width="0.888889"/>
<path opacity="0.25" d="M231.773 622.225C237.244 587.94 249.768 556.279 269.053 528.529C287.65 501.772 311.662 479.163 337.78 459.428C356.682 445.139 379.36 435.173 395.253 417.287C407.94 403.041 409.494 379.468 410.445 360.951C411.942 331.895 409.409 302.621 406.244 273.768C402.952 243.768 398.283 213.936 395.104 183.922C392.919 163.323 389.3 139.366 396.304 119.521C417.044 60.7706 491.319 37.6546 545.259 31.4241C620.031 22.7856 696.499 37.4733 769.547 56.8103C780.347 59.6753 791.203 62.6781 801.938 65.7898C928.791 102.585 1050.98 156.534 1164.6 225.012C1199.12 245.814 1233.57 269.423 1270.9 283.85C1324.69 304.63 1378.41 300.648 1428.74 270.765" stroke="#149DFD" stroke-width="0.888889"/>
<path opacity="0.25" d="M240.658 621.435C246.731 589.644 258.553 560.233 276.043 533.969C292.81 508.8 314.245 486.272 337.256 466.92C353.973 452.871 373.875 441.092 387.74 424.293C400.391 408.975 400.59 382.87 400.739 363.323C400.959 334.143 397.56 304.957 393.487 276.125C389.23 246.256 383.724 216.598 379.403 186.744C376.281 165.202 371.108 139.598 377.679 118.354C396.475 57.5648 473.212 33.2521 527.713 26.601C604.273 17.2589 682.671 32.1714 757.479 51.9871C768.54 54.8884 779.666 58.0145 790.664 61.2132C920.561 99.0096 1045.58 154.823 1161.4 225.984C1196.6 247.613 1231.71 272.187 1269.86 287.331C1324.59 309.091 1379.31 305.414 1430.84 275.103" stroke="#149DFD" stroke-width="0.888889"/>
<path opacity="0.25" d="M249.548 620.753C255.96 591.876 267.261 564.367 282.939 539.467C297.925 515.756 316.721 494.2 336.737 474.42C351.17 460.168 368.532 448.171 380.304 431.358C391.742 415.017 391.273 390.175 390.947 370.881C390.386 339.917 385.895 309.055 380.666 278.599C375.259 247.084 368.397 215.851 362.877 184.358C359.188 163.324 353.412 138.511 359.024 117.476C375.784 54.6711 455.033 29.1254 510.073 22.0173C588.428 11.9136 668.778 27.0292 745.352 47.3309C756.705 50.3337 768.058 53.4961 779.34 56.76C912.351 95.4631 1040.2 153.111 1158.24 226.942C1194.28 249.492 1230.14 274.704 1268.85 290.806C1324.11 313.784 1380.11 309.983 1432.93 279.433" stroke="#149DFD" stroke-width="0.888889"/>
<path opacity="0.25" d="M258.446 620.187C265.35 593.746 275.888 568.439 289.744 545.023C303.005 522.705 319.226 501.504 336.227 481.92C348.601 467.667 363.04 454.293 372.967 438.488C383.66 421.465 382.113 395.861 381.098 375.929C379.474 344.066 374.003 312.42 367.738 281.21C361.451 249.861 353.809 218.832 347.217 187.564C342.556 165.449 335.311 139.359 340.321 116.896C354.732 52.241 436.819 25.2591 492.32 17.6796C572.435 6.75626 654.807 22.0315 733.148 42.7539C744.749 45.822 756.414 49.0569 767.916 52.4079C904.304 92.206 1034.59 151.286 1154.98 227.935C1191.62 251.232 1227.94 277.685 1267.76 294.295C1324.53 317.983 1380.94 314.778 1434.93 283.799" stroke="#149DFD" stroke-width="0.888889"/>
<path opacity="0.25" d="M267.35 619.73C274.657 595.725 284.408 572.569 296.442 550.644C308.057 529.552 321.695 509.025 335.701 489.412C345.947 475.073 357.534 460.994 365.722 445.676C375.415 427.543 372.91 401.431 371.214 381.079C368.482 348.331 361.99 315.923 354.724 283.951C347.459 251.979 338.738 220.246 331.047 188.318C325.683 166.029 317.416 139.562 321.624 116.606C333.814 50.0504 418.534 21.6542 474.503 13.6104C556.406 1.81669 640.757 17.237 720.915 38.3293C732.786 41.4554 744.728 44.7556 756.52 48.1791C896.069 88.7821 1029.19 149.655 1151.82 228.936C1189.12 253.038 1226.1 280.434 1266.71 297.776C1324.36 322.437 1381.81 319.536 1436.96 288.151" stroke="#149DFD" stroke-width="0.888889"/>
<path opacity="0.25" d="M276.255 619.39C283.889 597.8 292.847 576.724 303.076 556.287C313.095 536.268 324.193 516.467 335.205 496.883C343.35 482.377 352.042 467.871 358.62 452.893C367.184 433.353 363.672 407.198 361.259 386.258C357.385 352.668 349.949 319.528 341.633 286.824C333.317 254.119 323.618 221.821 314.834 189.254C308.746 166.667 299.55 140.143 302.956 116.577C312.847 48.1431 400.221 18.3034 456.651 9.71567C540.307 -3.00641 626.709 12.4936 708.676 33.9486C720.823 37.1327 733.034 40.4765 745.097 43.9798C887.815 85.3602 1023.79 148.017 1148.63 229.93C1186.78 254.953 1224.52 282.951 1265.64 301.25C1323.68 327.072 1382.72 324.301 1438.97 292.51" stroke="#149DFD" stroke-width="0.888889"/>
<path opacity="0.25" d="M285.167 619.15C306.844 565.963 333.31 514.117 351.609 460.226C358.704 439.271 354.362 413.196 351.205 391.632C346.16 357.23 337.723 323.358 328.393 289.935C319.062 256.513 308.39 223.692 298.592 190.516C291.822 167.683 281.719 141.013 284.308 116.896C291.872 46.5982 381.878 15.2427 438.749 6.14716C524.185 -7.5251 612.588 7.99674 696.407 29.7708C855.849 71.2822 1007.55 139.24 1145.48 230.938C1184.19 256.672 1222.44 285.866 1264.61 304.717C1324.02 331.286 1383.54 329.074 1441 296.877" stroke="#149DFD" stroke-width="0.888889"/>
</g>
</svg>
