<?xml version="1.0" encoding="UTF-8" standalone="no"?>
<!-- Created with Inkscape (http://www.inkscape.org/) -->

<svg
   width="263.02338mm"
   height="213.60448mm"
   viewBox="0 0 263.02338 213.60448"
   version="1.1"
   id="svg5668"
   inkscape:version="1.1.2 (b8e25be833, 2022-02-05)"
   sodipodi:docname="WLS_7_1996.svg"
   xmlns:inkscape="http://www.inkscape.org/namespaces/inkscape"
   xmlns:sodipodi="http://sodipodi.sourceforge.net/DTD/sodipodi-0.dtd"
   xmlns:xlink="http://www.w3.org/1999/xlink"
   xmlns="http://www.w3.org/2000/svg"
   xmlns:svg="http://www.w3.org/2000/svg">
  <sodipodi:namedview
     id="namedview5670"
     pagecolor="#505050"
     bordercolor="#eeeeee"
     borderopacity="1"
     inkscape:pageshadow="0"
     inkscape:pageopacity="0"
     inkscape:pagecheckerboard="0"
     inkscape:document-units="px"
     showgrid="false"
     inkscape:zoom="0.64630631"
     inkscape:cx="882.70838"
     inkscape:cy="380.62447"
     inkscape:window-width="1366"
     inkscape:window-height="715"
     inkscape:window-x="-8"
     inkscape:window-y="-8"
     inkscape:window-maximized="1"
     inkscape:current-layer="svg5668"
     inkscape:snap-bbox="true"
     inkscape:bbox-nodes="true"
     inkscape:bbox-paths="true"
     inkscape:snap-bbox-midpoints="true"
     inkscape:snap-bbox-edge-midpoints="true"
     inkscape:object-paths="true"
     inkscape:snap-intersection-paths="true"
     inkscape:snap-smooth-nodes="true"
     inkscape:snap-midpoints="true" />
  <defs
     id="defs5665">
    <linearGradient
       inkscape:collect="always"
       id="linearGradient54723">
      <stop
         style="stop-color:white;stop-opacity:1;"
         offset="0"
         id="stop54719" />
      <stop
         style="stop-color:#1a1a1a;stop-opacity:1"
         offset="1"
         id="stop54721" />
    </linearGradient>
    <linearGradient
       inkscape:collect="always"
       id="linearGradient43696">
      <stop
         style="stop-color:#a7b5fd;stop-opacity:1;"
         offset="0"
         id="stop43692" />
      <stop
         style="stop-color:#a7b5fd;stop-opacity:0;"
         offset="1"
         id="stop43694" />
    </linearGradient>
    <linearGradient
       inkscape:collect="always"
       id="linearGradient37405">
      <stop
         style="stop-color:white;stop-opacity:1;"
         offset="0"
         id="stop37401" />
      <stop
         style="stop-color:white;stop-opacity:1"
         offset="0.51725453"
         id="stop41256" />
      <stop
         style="stop-color:#3d4955;stop-opacity:1"
         offset="1"
         id="stop37403" />
    </linearGradient>
    <linearGradient
       inkscape:collect="always"
       id="linearGradient29902">
      <stop
         style="stop-color:white;stop-opacity:1;"
         offset="0"
         id="stop29898" />
      <stop
         style="stop-color:#848688;stop-opacity:1"
         offset="1"
         id="stop29900" />
    </linearGradient>
    <linearGradient
       inkscape:collect="always"
       id="linearGradient11249">
      <stop
         style="stop-color:#a6b6e5;stop-opacity:1;"
         offset="0"
         id="stop11245" />
      <stop
         style="stop-color:#0f2287;stop-opacity:1"
         offset="0.51956671"
         id="stop11994" />
      <stop
         style="stop-color:#0f2287;stop-opacity:0"
         offset="1"
         id="stop11247" />
    </linearGradient>
    <linearGradient
       inkscape:collect="always"
       id="linearGradient35884">
      <stop
         style="stop-color:#ffffff;stop-opacity:1;"
         offset="0"
         id="stop35880" />
      <stop
         style="stop-color:#ffffff;stop-opacity:0;"
         offset="1"
         id="stop35882" />
    </linearGradient>
    <linearGradient
       inkscape:collect="always"
       id="linearGradient12510">
      <stop
         style="stop-color:#120e59;stop-opacity:1;"
         offset="0"
         id="stop12506" />
      <stop
         style="stop-color:#120e59;stop-opacity:0;"
         offset="1"
         id="stop12508" />
    </linearGradient>
    <style
       id="style2">.b2de2ebc-e21a-466b-b704-93c0baeca62c{fill:#fff;}</style>
    <linearGradient
       inkscape:collect="always"
       xlink:href="#linearGradient12510"
       id="linearGradient12512"
       x1="69.194267"
       y1="206.0296"
       x2="69.194267"
       y2="158.51155"
       gradientUnits="userSpaceOnUse"
       gradientTransform="matrix(0.84730472,0,0,0.84730472,1.0538266,-30.050207)" />
    <filter
       inkscape:collect="always"
       style="color-interpolation-filters:sRGB"
       id="filter14627"
       x="-0.025919319"
       y="-0.026252433"
       width="1.0518386"
       height="1.0525049">
      <feGaussianBlur
         inkscape:collect="always"
         stdDeviation="4.8939167"
         id="feGaussianBlur14629" />
    </filter>
    <clipPath
       clipPathUnits="userSpaceOnUse"
       id="clipPath14664">
      <path
         id="path14666"
         d="M 523.04324,517.17299 A 261.52161,261.52161 0 0 1 261.52164,778.69456 261.52161,261.52161 0 0 1 3.075055e-5,517.17299 261.52161,261.52161 0 0 1 261.52164,255.65135 261.52161,261.52161 0 0 1 523.04324,517.17299 Z"
         style="fill:#666;fill-opacity:1;stroke:none;stroke-width:1.81612" />
    </clipPath>
    <clipPath
       clipPathUnits="userSpaceOnUse"
       id="clipPath21284">
      <path
         style="opacity:1;fill:gray;fill-opacity:1;stroke:none;stroke-width:6.62792;stroke-linecap:round;stroke-linejoin:round;stroke-opacity:1"
         d="M 209.36034,0 A 129.3065,129.3065 0 0 0 80.053511,129.30632 129.3065,129.3065 0 0 0 209.36034,258.61315 129.3065,129.3065 0 0 0 338.66667,129.30632 129.3065,129.3065 0 0 0 209.36034,0 Z"
         id="path21286" />
    </clipPath>
    <radialGradient
       inkscape:collect="always"
       xlink:href="#linearGradient35884"
       id="radialGradient35886"
       cx="116.22801"
       cy="297.40228"
       fx="116.22801"
       fy="297.40228"
       r="232.44885"
       gradientTransform="matrix(1,0,0,0.98762973,0,6.0023632)"
       gradientUnits="userSpaceOnUse" />
    <radialGradient
       inkscape:collect="always"
       xlink:href="#linearGradient11249"
       id="radialGradient11251"
       cx="230.33203"
       cy="620.97589"
       fx="230.33203"
       fy="620.97589"
       r="220.45312"
       gradientTransform="matrix(0.59195916,0,0,0.59668915,93.98488,169.66114)"
       gradientUnits="userSpaceOnUse" />
    <filter
       inkscape:collect="always"
       style="color-interpolation-filters:sRGB"
       id="filter11592"
       x="-0.018777064"
       y="-0.031468754"
       width="1.0375541"
       height="1.0629375">
      <feGaussianBlur
         inkscape:collect="always"
         stdDeviation="3.4495521"
         id="feGaussianBlur11594" />
    </filter>
    <radialGradient
       inkscape:collect="always"
       xlink:href="#linearGradient29902"
       id="radialGradient28758"
       cx="18.612045"
       cy="54.725563"
       fx="18.612045"
       fy="54.725563"
       r="64.878975"
       gradientTransform="matrix(0.2539867,0,0,0.2561084,6.9444405,59.842905)"
       gradientUnits="userSpaceOnUse" />
    <radialGradient
       inkscape:collect="always"
       xlink:href="#linearGradient35884"
       id="radialGradient29264"
       cx="201.75977"
       cy="41.438717"
       fx="201.75977"
       fy="41.438717"
       r="65.873047"
       gradientTransform="matrix(0.26018893,0,0,0.32827179,8.1205324,53.128687)"
       gradientUnits="userSpaceOnUse" />
    <linearGradient
       inkscape:collect="always"
       xlink:href="#linearGradient35884"
       id="linearGradient29704"
       x1="135.88754"
       y1="0"
       x2="135.88754"
       y2="116.79237"
       gradientUnits="userSpaceOnUse"
       gradientTransform="matrix(0.26018893,0,0,0.26458335,8.1205324,58.333911)" />
    <radialGradient
       inkscape:collect="always"
       xlink:href="#linearGradient29902"
       id="radialGradient29904"
       cx="213.83707"
       cy="132.07339"
       fx="213.83707"
       fy="132.07339"
       r="38.238319"
       gradientTransform="matrix(0.24912749,-0.43879114,0.45889051,0.26941522,-50.121341,151.52486)"
       gradientUnits="userSpaceOnUse" />
    <radialGradient
       inkscape:collect="always"
       xlink:href="#linearGradient29902"
       id="radialGradient33359"
       cx="344.62415"
       cy="132.02347"
       fx="344.62415"
       fy="132.02347"
       r="37.311523"
       gradientTransform="matrix(0.26458335,0,0,0.27019684,6.9444419,57.839762)"
       gradientUnits="userSpaceOnUse" />
    <radialGradient
       inkscape:collect="always"
       xlink:href="#linearGradient29902"
       id="radialGradient33779"
       cx="285.10031"
       cy="85.564095"
       fx="285.10031"
       fy="85.564095"
       r="63.394535"
       gradientTransform="matrix(0.26458335,0,0,0.26498173,6.9444419,58.356964)"
       gradientUnits="userSpaceOnUse" />
    <clipPath
       clipPathUnits="userSpaceOnUse"
       id="clipPath34719">
      <path
         id="path34721"
         d="M 453.05587,330.62361 A 221.5885,221.5885 0 0 1 231.46738,552.21208 221.5885,221.5885 0 0 1 9.8788656,330.62361 221.5885,221.5885 0 0 1 231.46738,109.03509 221.5885,221.5885 0 0 1 453.05587,330.62361 Z"
         style="fill:#666;fill-opacity:1;stroke:none;stroke-width:1.53881" />
    </clipPath>
    <radialGradient
       inkscape:collect="always"
       xlink:href="#linearGradient37405"
       id="radialGradient37407"
       cx="652.08368"
       cy="-7.030519"
       fx="652.08368"
       fy="-7.030519"
       r="335.03809"
       gradientTransform="matrix(0.65314241,0,0,0.45707374,-208.75244,39.08315)"
       gradientUnits="userSpaceOnUse" />
    <radialGradient
       inkscape:collect="always"
       xlink:href="#linearGradient43696"
       id="radialGradient44269"
       cx="204.79884"
       cy="-38.946083"
       fx="204.79884"
       fy="-38.946083"
       r="74.300575"
       gradientTransform="matrix(1.1930627,0,8.1116926e-7,0.96978831,-25.380717,59.236882)"
       gradientUnits="userSpaceOnUse" />
    <filter
       inkscape:collect="always"
       style="color-interpolation-filters:sRGB"
       id="filter47125"
       x="-0.048000014"
       y="-0.047999988"
       width="1.096"
       height="1.096">
      <feGaussianBlur
         inkscape:collect="always"
         stdDeviation="2.3451442"
         id="feGaussianBlur47127" />
    </filter>
    <filter
       inkscape:collect="always"
       style="color-interpolation-filters:sRGB"
       id="filter47815"
       x="-0.013352643"
       y="-0.013746237"
       width="1.0267053"
       height="1.0274925">
      <feGaussianBlur
         inkscape:collect="always"
         stdDeviation="0.89369217"
         id="feGaussianBlur47817" />
    </filter>
    <linearGradient
       inkscape:collect="always"
       xlink:href="#linearGradient54723"
       id="linearGradient54725"
       x1="187.49669"
       y1="0.97975367"
       x2="157.01779"
       y2="31.458649"
       gradientUnits="userSpaceOnUse" />
  </defs>
  <g
     id="g54355"
     style="stroke:none">
    <path
       id="path5166"
       style="fill:#0c0dbb;fill-opacity:1;stroke:none;stroke-width:3.25025;stroke-linecap:round;stroke-linejoin:round"
       d="M 248.0413,88.222069 A 74.300573,72.055835 0 0 1 173.74071,160.2779 74.300573,72.055835 0 0 1 99.440145,88.222069 74.300573,72.055835 0 0 1 173.74071,16.166236 74.300573,72.055835 0 0 1 248.0413,88.222069 Z" />
    <path
       id="path41884"
       style="fill:url(#radialGradient44269);fill-opacity:1;stroke:none;stroke-width:3.25025;stroke-linecap:round;stroke-linejoin:round"
       d="M 248.0413,88.222069 A 74.300573,72.055835 0 0 1 173.74071,160.2779 74.300573,72.055835 0 0 1 99.440145,88.222069 74.300573,72.055835 0 0 1 173.74071,16.166236 74.300573,72.055835 0 0 1 248.0413,88.222069 Z" />
    <path
       id="path36886"
       style="opacity:0.75;fill:black;stroke:none;stroke-width:0.349089;filter:url(#filter47815)"
       d="m 175.96557,11.267666 c -48.95753,-1.9e-4 -88.645575,30.920022 -88.645734,80.677012 -1.22e-4,49.757192 39.688004,75.355792 88.645734,75.355602 48.95755,-1.1e-4 71.98636,-25.78561 71.98623,-75.542598 C 247.95164,42.0009 224.92292,11.267767 175.96557,11.267666 Z m 0,12.05174 c 20.87552,-0.0092 38.25502,8.030536 51.03393,24.807254 H 124.70057 c 12.7663,-16.760195 30.41007,-24.798054 51.265,-24.807254 z m -63.94029,46.767175 h 77.07479 C 171.89972,77.762074 152.19116,111.8835 155.8451,144.73732 l 1.02345,9.20213 c -28.69987,-8.60064 -45.5786,-31.58521 -45.57616,-61.995288 5.3e-4,-7.435018 -1.61838,-14.817055 0.73289,-21.857581 z m 126.94863,0.38766 c 2.46874,7.377498 2.7744,14.044417 2.77586,21.469921 0.007,36.645188 -31.59287,63.377048 -62.13621,64.822348 l -0.50658,-5.80269 c -3.36064,-38.49502 18.76005,-69.361698 59.86693,-80.489579 z"
       sodipodi:nodetypes="cccscsccsccscsccscsc" />
    <path
       id="path40"
       style="fill:url(#radialGradient37407);stroke:none;stroke-width:0.349089"
       d="M 174.37816,0 C 125.42063,-1.9049934e-4 85.732561,40.335707 85.732403,90.092697 85.732281,139.84989 125.42043,180.1861 174.37816,180.18591 223.3357,180.1858 263.02353,139.84968 263.0234,90.092697 263.02324,40.335915 223.3355,1.0054235e-4 174.37816,0 Z m 0,21.467425 c 20.87552,-0.0092 38.25502,8.030536 51.03393,24.807254 H 123.11315 c 12.7663,-16.760195 30.41008,-24.798054 51.26501,-24.807254 z m -63.94029,46.767174 h 77.07478 c -17.20034,7.675494 -36.9089,41.796921 -33.25496,74.650741 l 1.02344,9.20213 c -28.69986,-8.60064 -45.57859,-31.58521 -45.57615,-61.995289 5.3e-4,-7.435018 -1.61838,-14.817055 0.73289,-21.857582 z M 237.3865,68.62226 c 2.46874,7.377498 2.7744,14.044417 2.77585,21.469921 0.007,36.645189 -31.59286,63.377049 -62.1362,64.822349 l -0.50658,-5.80269 c -3.36064,-38.49502 18.76005,-69.361699 59.86693,-80.48958 z"
       sodipodi:nodetypes="cccscsccsccscsccscsc" />
    <path
       d="m 133.47401,186.06437 h 3.66111 v 11.05611 h 13.91576 v -11.05611 h 3.66109 v 26.7569 h -3.66109 v -12.51328 h -13.91576 v 12.51328 h -3.66111 z"
       style="font-style:normal;font-variant:normal;font-weight:normal;font-stretch:normal;font-size:28.7185px;line-height:1.25;font-family:Helvetica;-inkscape-font-specification:Helvetica;fill:black;fill-opacity:1;stroke:none;stroke-width:0.388574"
       id="path948" />
    <path
       d="m 157.50403,186.06437 h 3.66109 v 26.7569 h -3.66109 z"
       style="font-style:normal;font-variant:normal;font-weight:normal;font-stretch:normal;font-size:28.7185px;line-height:1.25;font-family:Helvetica;-inkscape-font-specification:Helvetica;fill:black;fill-opacity:1;stroke:none;stroke-width:0.388574"
       id="path950" />
    <path
       d="m 175.98448,185.33578 q 5.08182,0 7.88682,2.67753 2.80504,2.67751 3.11466,6.08358 h -3.53357 q -0.60108,-2.58643 -2.4043,-4.09823 -1.78502,-1.51178 -5.02718,-1.51178 -3.95251,0 -6.39323,2.78679 -2.42252,2.76859 -2.42252,8.50612 0,4.69929 2.18573,7.63181 2.20394,2.9143 6.55717,2.9143 4.00716,0 6.10181,-3.07824 1.11107,-1.62107 1.65751,-4.26215 h 3.53358 q -0.47356,4.22573 -3.13286,7.08539 -3.18752,3.44252 -8.59718,3.44252 -4.66289,0 -7.83219,-2.82322 -4.17109,-3.73396 -4.17109,-11.52971 0,-5.91967 3.13287,-9.70826 3.38788,-4.11645 9.34397,-4.11645 z m -0.72856,0 z"
       style="font-style:normal;font-variant:normal;font-weight:normal;font-stretch:normal;font-size:28.7185px;line-height:1.25;font-family:Helvetica;-inkscape-font-specification:Helvetica;fill:black;fill-opacity:1;stroke:none;stroke-width:0.388574"
       id="path952" />
    <path
       d="m 202.78436,201.85622 -4.06182,-11.82112 -4.31678,11.82112 z m -5.95611,-15.79185 h 4.09825 l 9.70826,26.7569 h -3.97074 l -2.71396,-8.01432 h -10.58254 l -2.89609,8.01432 h -3.71572 z m 1.87609,0 z"
       style="font-style:normal;font-variant:normal;font-weight:normal;font-stretch:normal;font-size:28.7185px;line-height:1.25;font-family:Helvetica;-inkscape-font-specification:Helvetica;fill:black;fill-opacity:1;stroke:none;stroke-width:0.388574"
       id="path954" />
    <path
       d="m 221.86124,185.37222 q 3.77038,0 6.52074,1.45714 3.98894,2.09466 4.88147,7.34039 h -3.58825 q -0.65569,-2.9325 -2.71394,-4.26216 -2.05823,-1.34786 -5.19107,-1.34786 -3.71574,0 -6.26576,2.7868 -2.53181,2.78679 -2.53181,8.30576 0,4.77216 2.09466,7.77752 2.09466,2.98717 6.83039,2.98717 3.62466,0 5.99253,-2.09467 2.38608,-2.11286 2.44071,-6.81217 h -8.3786 v -3.00536 h 11.74826 v 14.31649 h -2.33142 l -0.87429,-3.44252 q -1.83967,2.0218 -3.26038,2.80502 -2.38608,1.34786 -6.06539,1.34786 -4.75395,0 -8.17824,-3.07823 -3.73396,-3.86144 -3.73396,-10.60076 0,-6.7211 3.64288,-10.69183 3.46074,-3.78859 8.96147,-3.78859 z m -0.60107,-0.0363 z"
       style="font-style:normal;font-variant:normal;font-weight:normal;font-stretch:normal;font-size:28.7185px;line-height:1.25;font-family:Helvetica;-inkscape-font-specification:Helvetica;fill:black;fill-opacity:1;stroke:none;stroke-width:0.388574"
       id="path956" />
    <path
       d="m 249.04038,185.33578 q 7.08537,0 10.49145,4.5536 2.65931,3.5518 2.65931,9.08897 0,5.99253 -3.04179,9.96326 -3.57002,4.66288 -10.18185,4.66288 -6.17465,0 -9.70825,-4.08003 -3.15108,-3.9343 -3.15108,-9.94503 0,-5.42789 2.69574,-9.28933 3.46072,-4.95432 10.23647,-4.95432 z m 0.36429,25.02656 q 4.79036,0 6.92145,-3.42431 2.1493,-3.44252 2.1493,-7.90504 0,-4.71753 -2.47715,-7.59539 -2.45896,-2.87787 -6.73932,-2.87787 -4.15288,0 -6.77575,2.85965 -2.62289,2.84146 -2.62289,8.39683 0,4.44431 2.24038,7.50433 2.25858,3.0418 7.30398,3.0418 z m -0.25502,-25.02656 z"
       style="font-style:normal;font-variant:normal;font-weight:normal;font-stretch:normal;font-size:28.7185px;line-height:1.25;font-family:Helvetica;-inkscape-font-specification:Helvetica;fill:black;fill-opacity:1;stroke:none;stroke-width:0.388574"
       id="path958" />
    <path
       d="m 10.066915,202.67589 h 6.812172 l -3.351434,-10.56434 z m 0.34607,-16.70259 h 6.3386 l 9.507911,26.84798 h -6.083608 l -1.730356,-5.51895 H 8.5551275 l -1.8578708,5.51895 H 0.83223104 Z m 3.132878,0 z"
       style="font-weight:bold;font-size:28.7185px;line-height:1.25;font-family:Helvetica;-inkscape-font-specification:'Helvetica Bold';fill:black;fill-opacity:1;stroke:none;stroke-width:0.388574"
       id="path938" />
    <path
       d="m 32.77354,190.63618 v 5.91967 h 6.593603 q 1.766803,0 2.859662,-0.65572 1.111069,-0.67392 1.111069,-2.36786 0,-1.87609 -1.457141,-2.47716 -1.256795,-0.41893 -3.205734,-0.41893 z m 0,10.36399 v 7.15824 h 6.593603 q 1.766803,0 2.750371,-0.47358 1.785014,-0.8743 1.785014,-3.35144 0,-2.09466 -1.730368,-2.87788 -0.965358,-0.43713 -2.713938,-0.45534 z m 7.686474,-15.02687 q 4.93609,0.0729 6.99432,2.85966 1.238571,1.71214 1.238571,4.09824 0,2.45892 -1.238571,3.95251 -0.692156,0.83785 -2.040018,1.53 2.058228,0.74679 3.096442,2.36786 1.056438,1.62109 1.056438,3.93432 0,2.38608 -1.202151,4.28037 -0.764998,1.2568 -1.912503,2.11287 -1.293231,0.98357 -3.060022,1.34787 -1.74858,0.36428 -3.806796,0.36428 H 27.418522 V 185.9733 Z"
       style="font-weight:bold;font-size:28.7185px;line-height:1.25;font-family:Helvetica;-inkscape-font-specification:'Helvetica Bold';fill:black;fill-opacity:1;stroke:none;stroke-width:0.388574"
       id="path940" />
    <path
       d="m 51.022492,199.61586 q 0,-7.03075 3.770374,-10.83755 3.278591,-3.31501 8.342183,-3.31501 6.775737,0 9.908614,4.44431 1.73037,2.49537 1.857871,5.00895 H 69.2915 q -0.54643,-1.93073 -1.402508,-2.9143 -1.529998,-1.74858 -4.535375,-1.74858 -3.060008,0 -4.826811,2.47715 -1.766791,2.45894 -1.766791,6.97611 0,4.51717 1.857871,6.77574 1.876083,2.24036 4.753943,2.24036 2.95073,0 4.498952,-1.93071 0.856079,-1.03823 1.420719,-3.11466 h 5.555388 q -0.728576,4.38967 -3.733952,7.14003 -2.987152,2.75037 -7.66825,2.75037 -5.79217,0 -9.107182,-3.71573 -3.315012,-3.73394 -3.315012,-10.23648 z m 11.94862,-14.46221 z"
       style="font-weight:bold;font-size:28.7185px;line-height:1.25;font-family:Helvetica;-inkscape-font-specification:'Helvetica Bold';fill:black;fill-opacity:1;stroke:none;stroke-width:0.388574"
       id="path942" />
    <path
       d="m 101.51539,189.90949 c -0.77714,0.765 -2.247085,3.0399 -3.631383,5.00706 -1.384298,1.95501 -2.543943,3.9768 -3.478946,6.06538 -0.740708,1.63929 -1.408574,3.64289 -2.00357,6.01075 -0.59501,2.36786 -0.892514,4.31072 -0.892514,5.82859 h -5.391452 c 0.157858,-4.73573 1.712158,-9.65968 4.662889,-14.77186 1.906424,-3.16929 4.282031,-6.28813 5.569186,-7.53884 H 82.401796 l 0.07287,-4.66288 H 101.5154 Z"
       style="font-weight:bold;font-size:28.7185px;line-height:1.25;font-family:Helvetica;-inkscape-font-specification:'Helvetica Bold';fill:black;fill-opacity:1;stroke:none;stroke-width:0.388574"
       id="path944"
       sodipodi:nodetypes="cccscccccccc" />
    <path
       d="m 120.05644,185.33578 q 5.08181,0 7.88682,2.67753 2.80502,2.67751 3.11466,6.08358 h -3.53359 q -0.60108,-2.58643 -2.40429,-4.09823 -1.78502,-1.51178 -5.02717,-1.51178 -3.95253,0 -6.39324,2.78679 -2.42253,2.76859 -2.42253,8.50612 0,4.69929 2.18574,7.63181 2.20393,2.9143 6.55717,2.9143 4.00716,0 6.10181,-3.07824 1.11108,-1.62107 1.65751,-4.26215 h 3.5336 q -0.47359,4.22573 -3.13288,7.08539 -3.1875,3.44252 -8.59719,3.44252 -4.66287,0 -7.83218,-2.82322 -4.1711,-3.73396 -4.1711,-11.52971 0,-5.91967 3.13288,-9.70826 3.38789,-4.11645 9.34398,-4.11645 z m -0.72858,0 z"
       style="font-style:normal;font-variant:normal;font-weight:normal;font-stretch:normal;font-size:28.7185px;line-height:1.25;font-family:Helvetica;-inkscape-font-specification:Helvetica;fill:black;fill-opacity:1;stroke:none;stroke-width:0.388574"
       id="path946" />
    <path
       id="path51013"
       style="color:black;solid-color:black;fill:#f9f9f9;stroke:none;stroke-width:0.264583;-inkscape-stroke:none"
       d="m 238.03578,67.41036 -0.64906,1.211813 c 2.46875,7.377498 2.77408,14.044504 2.77554,21.470008 0.007,36.645189 -31.59293,63.377109 -62.13626,64.822409 l -0.91261,1.04438 0.96015,-0.0455 c 31.0923,-1.47127 63.09597,-28.60118 63.08866,-65.821309 -0.002,-7.452821 -0.30882,-14.261438 -2.82721,-21.787302 z" />
    <path
       id="path50681"
       style="color:black;solid-color:black;fill:white;stroke:none;stroke-width:0.264583;-inkscape-stroke:none"
       d="m 192.42512,67.23466 -4.91236,0.999939 C 170.42981,75.857707 150.88452,109.5665 154.198,142.212 c 0.0228,0.22434 0.035,0.44911 0.0599,0.67334 l 1.02319,9.20203 1.16117,1.39216 -1.19062,-10.70477 c -0.0193,-0.1731 -0.0286,-0.34669 -0.0465,-0.51987 -1.6601,-16.02742 2.28003,-32.39378 8.75864,-45.69902 6.54861,-13.449008 15.72978,-23.737203 23.95616,-27.408148 z" />
    <path
       style="color:black;solid-color:black;fill:white;stroke:none;stroke-width:0.264583;-inkscape-stroke:none"
       d="m 109.7175,67.23466 -0.22789,0.683163 c -2.46148,7.370533 -0.78393,14.884555 -0.78445,22.174358 -0.002,30.780119 17.22332,54.242949 46.28917,62.953269 l 1.44797,0.43408 -1.16117,-1.39216 c -28.69986,-8.60065 -45.57847,-31.58511 -45.57603,-61.995189 5.3e-4,-7.427768 -1.61416,-14.802585 0.72709,-21.836911 h -0.001 z"
       id="path51011" />
    <path
       id="path50677"
       style="color:black;solid-color:black;fill:url(#linearGradient54725);stroke:none;stroke-width:0.264583;-inkscape-stroke:none;fill-opacity:1"
       d="M 174.37816,0 C 125.42063,-1.9049934e-4 85.732561,40.335707 85.732403,90.092697 85.732281,139.8499 125.42043,180.1861 174.37816,180.18591 223.33572,180.1858 263.02353,139.84969 263.0234,90.092697 263.02324,40.335915 223.33551,1.0054235e-4 174.37816,0 Z m 0,0.99993986 C 222.7862,1.0000378 262.0233,40.86772 262.02346,90.092697 262.0236,139.31789 222.7864,179.18586 174.37816,179.18597 125.96975,179.18616 86.732221,139.3181 86.732342,90.092697 86.732499,40.867514 125.96994,0.999752 174.37816,0.99993986 Z" />
    <path
       style="font-variation-settings:normal;opacity:1;vector-effect:none;fill:#e6e6e6;fill-opacity:1;stroke:none;stroke-width:1;stroke-linecap:butt;stroke-linejoin:miter;stroke-miterlimit:4;stroke-dasharray:none;stroke-dashoffset:0;stroke-opacity:1;-inkscape-stroke:none;stop-color:black;stop-opacity:1"
       d="m 109.7175,67.23466 0.71366,1.02061 77.0816,-0.02067 4.91236,-0.999939 z"
       id="path52804" />
    <path
       style="font-variation-settings:normal;opacity:1;vector-effect:none;fill:#f9f9f9;fill-opacity:1;stroke:none;stroke-width:1;stroke-linecap:butt;stroke-linejoin:miter;stroke-miterlimit:4;stroke-dasharray:none;stroke-dashoffset:0;stroke-opacity:1;-inkscape-stroke:none;stop-color:black;stop-opacity:1"
       d="m 123.11307,46.274698 -2.01848,0.999939 h 106.33615 l -2.01848,-0.999939 z"
       id="path48974" />
    <path
       id="path46492"
       d="M 123.60268,85.891035 A 58.628625,58.628625 0 0 1 64.974121,144.51965 58.628625,58.628625 0 0 1 6.3455009,85.891035 58.628625,58.628625 0 0 1 64.974121,27.262407 58.628625,58.628625 0 0 1 123.60268,85.891035 Z"
       style="opacity:0.5;fill:white;fill-opacity:1;stroke:none;stroke-width:0.407143;filter:url(#filter47125)" />
    <path
       id="circle8"
       d="M 118.31108,85.891035 A 58.628625,58.628625 0 0 1 59.682461,144.51965 58.628625,58.628625 0 0 1 1.0538348,85.891035 58.628625,58.628625 0 0 1 59.682461,27.262407 58.628625,58.628625 0 0 1 118.31108,85.891035 Z"
       style="fill:black;stroke:none;stroke-width:0.407143" />
    <path
       id="path11469"
       d="M 118.31108,85.891035 A 58.628625,58.628625 0 0 1 59.682461,144.51965 58.628625,58.628625 0 0 1 1.0538348,85.891035 58.628625,58.628625 0 0 1 59.682461,27.262407 58.628625,58.628625 0 0 1 118.31108,85.891035 Z"
       style="fill:url(#linearGradient12512);fill-opacity:1;stroke:none;stroke-width:0.407143" />
    <path
       id="path7396"
       style="fill:url(#radialGradient11251);fill-opacity:1;stroke:none;stroke-width:1.53881;filter:url(#filter11592)"
       d="M 13.955078,289.12891 A 221.58851,221.58851 0 0 0 9.8789062,330.62305 221.58851,221.58851 0 0 0 231.4668,552.21289 221.58851,221.58851 0 0 0 450.78516,361.82812 221.58851,221.58851 0 0 1 233.4668,540.21289 221.58851,221.58851 0 0 1 11.878906,318.62305 221.58851,221.58851 0 0 1 13.955078,289.12891 Z"
       transform="matrix(0.26458333,0,0,0.26458333,-1.5599484,-1.5864611)"
       clip-path="url(#clipPath34719)" />
    <path
       id="path14128"
       style="fill:url(#radialGradient35886);fill-opacity:1;stroke:none;stroke-width:1.81612;filter:url(#filter14627)"
       d="M 261.52148,255.65039 A 261.52161,261.52161 0 0 0 0,517.17383 261.52161,261.52161 0 0 0 77.8125,703.05273 261.52161,261.52161 0 0 1 8,525.17188 261.52161,261.52161 0 0 1 269.52148,263.65039 261.52161,261.52161 0 0 1 453.15234,339.21484 261.52161,261.52161 0 0 0 261.52148,255.65039 Z"
       transform="matrix(0.22418272,0,0,0.22418272,1.0538263,-30.050208)"
       clip-path="url(#clipPath14664)" />
    <path
       id="path4743"
       style="fill:#adb0b6;fill-opacity:1;stroke:none;stroke-width:1.05383"
       d="m 43.476753,58.333911 v 25.821165 c 0,9.623587 7.671215,17.427364 17.137404,17.427364 9.466191,0 17.14147,-7.803777 17.14147,-17.427364 0,-9.627849 -7.676322,-17.423228 -17.14147,-17.423228 -3.423098,0 -6.643623,0.858337 -9.284475,2.777092 V 58.333911 Z m 17.371168,16.233636 c 5.205569,0 9.430618,4.282014 9.438962,9.57616 0.01044,5.289887 -4.205441,9.587308 -9.411013,9.594764 -5.201397,0.01065 -9.429496,-4.281623 -9.442011,-9.57151 0,-5.289885 4.209534,-9.587702 9.414062,-9.599414 z" />
    <path
       id="path35285"
       style="fill:#adb0b6;fill-opacity:1;stroke:none;stroke-width:1.02013"
       d="m 23.402481,67.859043 c -9.106147,0.01942 -16.47637,7.399328 -16.4580405,16.506655 0.010156,9.100171 7.4009945,16.468902 16.5071515,16.453572 3.189794,0 6.168727,-0.915775 8.689619,-2.485791 v 2.773021 l 7.759987,-0.0154 V 84.315595 C 39.891013,75.216445 32.504557,67.843711 23.402481,67.859043 Z m -0.02629,7.507986 c 4.982722,-0.01022 9.025747,4.025219 9.03389,9.005118 0,4.977855 -4.024877,9.022393 -9.007598,9.025456 -4.97865,0.01636 -9.021778,-4.017194 -9.029922,-9.000157 -0.01016,-4.978877 4.020908,-9.019172 9.00363,-9.030417 z" />
    <path
       style="fill:#adb0b6;fill-opacity:1;stroke:none;stroke-width:1.06072"
       d="m 96.051364,67.859103 c -9.307887,0 -16.858423,7.520204 -16.858423,16.802545 0,9.277037 7.551596,16.794112 16.858423,16.794112 8.150756,0 14.947146,-5.75966 16.480786,-13.411492 h -7.67362 c -1.37561,3.521985 -4.83198,6.147997 -8.869707,6.147997 -5.297732,0 -9.590015,-4.277326 -9.590015,-9.55182 0,-5.278734 4.292283,-9.551816 9.590015,-9.551816 4.458797,0 8.205917,3.01441 9.287737,7.120918 h 7.46232 C 111.54995,74.09625 104.53622,67.859103 96.051364,67.859103 Z"
       id="path35287" />
    <path
       id="path27653"
       style="color:black;solid-color:black;fill:url(#radialGradient29904);fill-opacity:1;stroke:none;stroke-width:0.991662;-inkscape-stroke:none"
       d="m 60.847414,74.036829 c -5.486747,0.01235 -9.935965,4.552587 -9.935965,10.129098 v 0.0021 c 0.01319,5.5771 4.481804,10.11294 9.966454,10.101709 5.487075,-0.0089 9.942898,-4.55017 9.9319,-10.127031 -0.0087,-5.581159 -4.475072,-10.105844 -9.962389,-10.105844 z m 5.07e-4,0.530718 c 5.205569,0 9.430618,4.282014 9.438962,9.57616 0.01043,5.289887 -4.205441,9.587308 -9.411013,9.594764 -5.201397,0.01064 -9.429496,-4.281623 -9.442011,-9.57151 0,-5.289885 4.209534,-9.587702 9.414062,-9.599414 z" />
    <path
       style="color:black;solid-color:black;fill:url(#radialGradient33359);stroke:none;stroke-width:0.998143;-inkscape-stroke:none"
       d="m 95.989143,74.559248 c -5.584513,0 -10.120832,4.517084 -10.120832,10.081713 0,5.560617 4.536036,10.081199 10.120832,10.081199 4.129667,0 7.630397,-2.613671 9.172047,-6.148804 l -0.30282,-0.529264 c -1.37561,3.521985 -4.83202,6.148291 -8.869746,6.148291 -5.297731,0 -9.589596,-4.277443 -9.589596,-9.551937 0,-5.278734 4.291865,-9.551937 9.589596,-9.551937 4.458796,0 8.205986,3.014326 9.287806,7.120835 l 0.3359,-0.528232 c -1.28157,-4.117265 -5.07848,-7.121864 -9.623187,-7.121864 z"
       id="path27657" />
    <path
       id="path27651"
       style="color:black;solid-color:black;fill:white;stroke:none;stroke-width:0.95995;-inkscape-stroke:none"
       d="m 23.374205,74.856575 c -5.257836,0.01186 -9.522322,4.287143 -9.511603,9.541863 0.0086,5.258408 4.286339,9.526388 9.541367,9.509124 5.257693,-0.0043 9.515572,-4.283267 9.515572,-9.535415 -0.0086,-5.255518 -4.286668,-9.526361 -9.545336,-9.515572 z m 0.002,0.510454 c 4.982722,-0.01022 9.025747,4.025218 9.03389,9.005118 0,4.977855 -4.024877,9.022393 -9.007598,9.025456 -4.97865,0.01636 -9.021778,-4.017194 -9.029922,-9.000157 -0.01016,-4.978877 4.020908,-9.019172 9.00363,-9.030417 z" />
    <path
       style="color:black;solid-color:black;fill:url(#radialGradient33779);stroke:none;stroke-width:0.998143;-inkscape-stroke:none"
       d="m 96.051153,67.859043 c -9.307886,0 -16.858404,7.52017 -16.858404,16.802512 0,9.277038 7.551577,16.794275 16.858404,16.794275 8.150757,0 14.947527,-5.759906 16.481167,-13.411738 l -0.7674,0.529264 c -1.73832,7.068058 -8.05598,12.352184 -15.713251,12.352184 -9.019641,0 -16.327684,-7.272651 -16.327684,-16.26347 0,-8.996326 7.30707,-16.273251 16.327684,-16.273251 8.005401,0 14.606591,5.740187 16.015561,13.292293 l 0.67179,0.528232 C 111.55009,74.096046 104.53601,67.859043 96.051153,67.859043 Z"
       id="path27649" />
    <path
       id="path27647"
       style="color:black;solid-color:black;fill:url(#radialGradient28758);stroke:none;stroke-width:0.95995;-inkscape-stroke:none"
       d="m 23.402481,67.859043 c -9.106147,0.01942 -16.47637,7.399328 -16.4580405,16.506655 0.010156,9.100171 7.4009945,16.468902 16.5071515,16.453572 3.189794,0 6.168727,-0.915775 8.689619,-2.485791 l 0.509957,-0.917725 -0.779818,0.48565 c -2.443388,1.521749 -5.328095,2.407416 -8.420255,2.407416 C 14.620569,100.32369 7.4642464,93.188516 7.4543981,84.36421 7.4366236,75.532627 14.572828,68.388333 23.403969,68.369497 c 8.826173,-0.01487 15.977892,7.122691 15.987767,15.946098 v 16.266555 l 0.509462,0.50897 V 84.315595 C 39.891013,75.216445 32.504557,67.843711 23.402481,67.859043 Z" />
    <path
       id="path18452"
       style="color:black;solid-color:black;fill:url(#radialGradient29264);stroke:none;stroke-width:0.991662;-inkscape-stroke:none"
       d="m 43.476753,58.333911 v 25.821165 c 0,9.623587 7.671215,17.427364 17.137404,17.427364 9.466191,0 17.14147,-7.803777 17.14147,-17.427364 0,-9.627849 -7.676322,-17.423228 -17.14147,-17.423228 -3.423098,0 -6.643623,0.858337 -9.284475,2.777092 l -0.521903,1.031979 0.825796,-0.599447 c 2.53731,-1.843525 5.643883,-2.677873 8.981092,-2.677873 9.183017,0 16.618043,7.549806 16.618043,16.890443 0,9.336289 -7.434272,16.896648 -16.618043,16.896648 -9.183772,0 -16.615504,-7.560198 -16.615504,-16.896648 V 58.865145 Z m 7.331026,12.207008 0.01626,-11.692311 -0.01626,0.01654 z" />
    <path
       style="font-variation-settings:normal;opacity:1;vector-effect:none;fill:#b3b3b3;fill-opacity:1;stroke:none;stroke-width:0.95995;stroke-linecap:butt;stroke-linejoin:miter;stroke-miterlimit:4;stroke-dasharray:none;stroke-dashoffset:0;stroke-opacity:1;-inkscape-stroke:none;stop-color:black;stop-opacity:1"
       d="m 39.391736,100.58215 -6.740568,0.0134 -0.509957,0.51095 7.759987,-0.0154 z"
       id="path28982" />
    <path
       style="font-variation-settings:normal;opacity:1;vector-effect:none;fill:white;fill-opacity:1;stroke:none;stroke-width:0.998143;stroke-linecap:butt;stroke-linejoin:miter;stroke-miterlimit:4;stroke-dasharray:none;stroke-dashoffset:0;stroke-opacity:1;-inkscape-stroke:none;stop-color:black;stop-opacity:1"
       d="m 104.85837,88.044092 0.30282,0.529264 h 6.60373 l 0.7674,-0.529264 z"
       id="path28980" />
    <path
       style="font-variation-settings:normal;opacity:1;vector-effect:none;fill:#87898b;fill-opacity:1;stroke:none;stroke-width:0.998143;stroke-linecap:butt;stroke-linejoin:miter;stroke-miterlimit:4;stroke-dasharray:none;stroke-dashoffset:0;stroke-opacity:1;-inkscape-stroke:none;stop-color:black;stop-opacity:1"
       d="m 105.61233,81.681112 -0.3359,0.528232 h 7.46259 l -0.67179,-0.528232 z"
       id="path28978" />
    <path
       style="font-variation-settings:normal;opacity:1;vector-effect:none;fill:white;fill-opacity:1;stroke:none;stroke-width:0.991662;stroke-linecap:butt;stroke-linejoin:miter;stroke-miterlimit:4;stroke-dasharray:none;stroke-dashoffset:0;stroke-opacity:1;-inkscape-stroke:none;stop-color:black;stop-opacity:1"
       d="m 43.476753,58.333911 0.52241,0.531234 h 6.808616 l 0.521903,-0.531234 z"
       id="path26968" />
    <path
       style="font-variation-settings:normal;opacity:1;vector-effect:none;fill:#ccc;fill-opacity:1;stroke:none;stroke-width:0.95995;stroke-linecap:butt;stroke-linejoin:miter;stroke-miterlimit:4;stroke-dasharray:none;stroke-dashoffset:0;stroke-opacity:1;-inkscape-stroke:none;stop-color:black;stop-opacity:1"
       d="m 32.651168,97.415754 -0.509957,0.917725 v 2.773021 l 0.509957,-0.51095 z"
       id="path28017" />
    <path
       style="font-variation-settings:normal;opacity:1;vector-effect:none;fill:#b3b3b3;fill-opacity:1;stroke:none;stroke-width:0.991661;stroke-linecap:butt;stroke-linejoin:miter;stroke-miterlimit:4;stroke-dasharray:none;stroke-dashoffset:0;stroke-opacity:1;-inkscape-stroke:none;stop-color:black;stop-opacity:1"
       d="m 51.329582,58.333911 -0.505491,0.514633 -0.01632,11.692375 0.521903,-1.031979 z"
       id="path28377" />
    <path
       id="path29621"
       style="color:black;solid-color:black;fill:url(#linearGradient29704);fill-opacity:1;stroke:none;stroke-width:0.991662;-inkscape-stroke:none"
       d="m 43.476753,58.333911 v 25.821165 c 0,9.623587 7.671215,17.427364 17.137404,17.427364 9.466191,0 17.14147,-7.803777 17.14147,-17.427364 0,-9.627849 -7.676322,-17.423228 -17.14147,-17.423228 -3.423098,0 -6.643623,0.858337 -9.284475,2.777092 l -0.521903,1.031979 0.825796,-0.599447 c 2.53731,-1.843525 5.643883,-2.677873 8.981092,-2.677873 9.183017,0 16.618043,7.549806 16.618043,16.890443 0,9.336289 -7.434272,16.896648 -16.618043,16.896648 -9.183772,0 -16.615504,-7.560198 -16.615504,-16.896648 V 58.865145 Z m 7.331026,12.207008 0.01626,-11.692311 -0.01626,0.01654 z" />
  </g>
</svg>
